<svg width="509" height="393" viewBox="0 0 509 393" fill="none" xmlns="http://www.w3.org/2000/svg">
<g clip-path="url(#clip0_1173_413)">
<path fill-rule="evenodd" clip-rule="evenodd" d="M68.8338 34.4116C68.8338 25.3204 65.2306 16.6016 58.8162 10.1732C52.402 3.74478 43.7026 0.133331 34.6316 0.133331C25.5606 0.133331 16.8612 3.74478 10.447 10.1732C4.03287 16.6016 0.429437 25.3204 0.429435 34.4116H34.6316H68.8338ZM0.429435 34.4116H68.8338V127.116C90.5586 113.775 116.111 106.084 143.457 106.084C186.372 106.084 224.873 125.027 251.089 155.025C255.4 148.717 259.779 143.467 263.841 139.395C357.076 55.6615 443.14 113.802 477.273 156.233C477.31 156.28 477.344 156.331 477.374 156.385C478.882 159.156 476.453 163.8 474.425 166.215L380.168 278.463C364.45 297.182 374.975 325.227 396.32 313.356C397.7 312.589 399.043 311.778 400.351 310.928C417.822 299.569 442.946 294.69 458.131 308.973C470.358 320.474 471.618 339.848 459.296 351.247C375.695 428.587 291.471 380.555 254.017 340.375C227.785 372.368 187.999 392.775 143.457 392.775C64.4648 392.775 0.429398 328.597 0.429398 249.429C0.429398 248.387 0.440488 247.348 0.462557 246.311L0.429398 246.314L0.429435 34.4116ZM221.189 249.429C221.189 292.455 186.387 327.334 143.457 327.334C100.527 327.334 65.7242 292.455 65.7242 249.429C65.7242 206.403 100.527 171.524 143.457 171.524C186.387 171.524 221.189 206.403 221.189 249.429ZM381.457 176.776L306.102 273.066C299.883 281.297 285.606 231.324 310.48 195.487C328.325 169.779 360.839 168.043 379.321 170.955C382.064 171.387 383.17 174.586 381.457 176.776Z" fill="url(#paint0_linear_1173_413)"/>
<path d="M483.89 392.775C497.701 392.775 508.897 381.554 508.897 367.712C508.897 353.871 497.701 342.65 483.89 342.65C470.08 342.65 458.884 353.871 458.884 367.712C458.884 381.554 470.08 392.775 483.89 392.775Z" fill="#5951D1"/>
</g>
<defs>
<linearGradient id="paint0_linear_1173_413" x1="348.504" y1="96.7356" x2="348.504" y2="392.43" gradientUnits="userSpaceOnUse">
<stop stop-color="#5984C0"/>
<stop offset="1" stop-color="#5844D5"/>
</linearGradient>
<clipPath id="clip0_1173_413">
<rect width="509" height="393" fill="white"/>
</clipPath>
</defs>
</svg>
